Coordinates
version=1
nRows=9
nColumns=63
inDegrees=yes

Units are S.I. units (second, meters, Newtons, ...)
If the header above contains a line with 'inDegrees', this indicates whether rotational values are in degrees (yes) or radians (no).

endheader
time	pelvis_tilt	pelvis_list	pelvis_rotation	pelvis_tx	pelvis_ty	pelvis_tz	hip_flexion_r	hip_adduction_r	hip_rotation_r	knee_angle_r	knee_angle_r_beta	ankle_angle_r	subtalar_angle_r	mtp_angle_r	hip_flexion_l	hip_adduction_l	hip_rotation_l	knee_angle_l	knee_angle_l_beta	ankle_angle_l	subtalar_angle_l	mtp_angle_l	L5_S1_Flex_Ext	L5_S1_Lat_Bending	L5_S1_axial_rotation	L4_L5_Flex_Ext	L4_L5_Lat_Bending	L4_L5_axial_rotation	L3_L4_Flex_Ext	L3_L4_Lat_Bending	L3_L4_axial_rotation	L2_L3_Flex_Ext	L2_L3_Lat_Bending	L2_L3_axial_rotation	L1_L2_Flex_Ext	L1_L2_Lat_Bending	L1_L2_axial_rotation	L1_T12_Flex_Ext	L1_T12_Lat_Bending	L1_T12_axial_rotation	Abs_r3	Abs_r2	Abs_r1	Abs_t1	Abs_t2	neck_flexion	neck_bending	neck_rotation	arm_flex_r	arm_add_r	arm_rot_r	elbow_flex_r	pro_sup_r	wrist_flex_r	wrist_dev_r	arm_flex_l	arm_add_l	arm_rot_l	elbow_flex_l	pro_sup_l	wrist_flex_l	wrist_dev_l
      4.22413793	     -8.21026564	     -3.24510505	     93.31609099	      0.20294622	      0.93892522	      0.63492930	     -7.80725905	     -3.35598933	      6.23946806	      0.64667791	      0.01128666	     23.56012730	    -14.58735406	      0.00000000	     -3.43674503	      4.15339179	      8.38005924	      5.27424711	      0.09205298	     26.47466029	     -1.06869078	      0.00000000	     -0.66868945	     -0.44460405	     -0.81589606	     -1.24182318	     -0.59132338	     -0.86688956	     -1.09858990	     -1.08101028	     -0.86688956	     -0.76424518	     -1.08101028	     -0.71390905	     -0.62094503	     -0.90663657	     -0.66291555	     -0.38208915	     -0.68869167	     -0.61192204	     -4.77638190	     -5.02944990	     -4.53776910	      0.00000000	      0.00000000	     -3.01676828	     -2.24018483	     -0.54408773	     13.75846244	     -4.79012714	    130.86807135	      6.18969714	      2.61722873	      0.40550858	    -11.49518991	     17.07176270	     -8.10132994	    184.16457507	      2.97638278	     13.47559993	    -11.74234742	     -1.32670893
      4.24137931	     -8.13459438	     -2.87594011	     92.97917717	      0.20348699	      0.93909290	      0.63264534	     -8.36571018	     -3.27936609	      7.35803384	      0.46402797	      0.00809882	     23.31034950	    -15.68329925	      0.00000000	     -4.79514651	      4.14743247	     13.24823620	      3.55123982	      0.06198083	     24.39260325	     -7.91191033	      0.00000000	     -0.67020543	     -0.43517151	     -0.75258873	     -1.24463850	     -0.57877811	     -0.79962552	     -1.10108050	     -1.05807602	     -0.79962552	     -0.76597778	     -1.05807602	     -0.65851514	     -0.62235276	     -0.88740175	     -0.61147834	     -0.38295538	     -0.67408067	     -0.56444154	     -4.78721035	     -4.92274718	     -4.18567272	      0.00000000	      0.00000000	     -3.16869808	     -2.08494854	     -0.20103973	     13.35490323	     -4.83026770	    129.84874406	      6.47831752	      2.15324483	      0.12040334	    -11.80829875	     16.55472244	     -8.22016316	    184.67219930	      2.71011860	     12.68244922	    -10.27147220	     -1.22583774
      4.25862069	     -8.06951957	     -2.71493629	     93.09619552	      0.20359222	      0.93924938	      0.63205964	     -8.51038023	     -3.15820241	      6.71626776	      0.63521165	      0.01108653	     23.67147733	    -14.93074481	      0.00000000	     -4.69996106	      3.96976595	     10.01900291	      4.19866231	      0.07328048	     25.89137340	     -3.22216164	      0.00000000	     -0.67857799	     -0.42656304	     -0.77354133	     -1.26018719	     -0.56732884	     -0.82188766	     -1.11483579	     -1.03714538	     -0.82188766	     -0.77554679	     -1.03714538	     -0.67684867	     -0.63012752	     -0.86984735	     -0.62850233	     -0.38773947	     -0.66074615	     -0.58015600	     -4.84701475	     -4.82536643	     -4.30220482	      0.00000000	      0.00000000	     -3.31091942	     -2.32093081	     -0.53012042	     13.38371203	     -5.02063255	    127.29137291	      7.40848354	      3.25614250	     -0.69354787	    -11.99208614	     16.59051240	     -8.34648305	    181.27277102	      3.34566502	     15.35524459	     -9.92155796	     -1.42035773
      4.27586207	     -8.06827645	     -2.42198982	     92.97878317	      0.20415606	      0.93927355	      0.63042098	     -8.96799321	     -3.11214735	      7.34773345	      0.49701714	      0.00867459	     23.46049747	    -15.81220741	      0.00000000	     -5.64162104	      3.94124904	     12.86390254	      3.05521998	      0.05332365	     24.96787917	     -6.81704099	      0.00000000	     -0.69561303	     -0.42407599	     -0.74210644	     -1.29182296	     -0.56402107	     -0.78848810	     -1.14282265	     -1.03109837	     -0.78848810	     -0.79501614	     -1.03109837	     -0.64934314	     -0.64594626	     -0.86477577	     -0.60296149	     -0.39747329	     -0.65689371	     -0.55657983	     -4.96869434	     -4.79723246	     -4.12737341	      0.00000000	      0.00000000	     -3.64293688	     -2.95927389	     -1.58932092	     13.02755378	     -4.75436210	    129.50781254	      6.67821075	      2.19297682	     -0.63672980	    -12.49725661	     16.30608236	     -8.47730332	    183.48481047	      3.00541675	     11.79992858	     -8.80215982	     -1.56293113
      4.29310345	     -8.03847447	     -2.21000607	     92.99617927	      0.20455451	      0.93921824	      0.62928274	     -9.24673439	     -3.02515253	      7.33688488	      0.51874604	      0.00905383	     23.59590287	    -15.85500613	      0.00000000	     -6.01715237	      3.83930399	     13.18911083	      2.84779556	      0.04970341	     25.40902716	     -6.62215099	      0.00000000	     -0.71179127	     -0.41664103	     -0.73886529	     -1.32186757	     -0.55413257	     -0.78504437	     -1.16940188	     -1.01302101	     -0.78504437	     -0.81350625	     -1.01302101	     -0.64650713	     -0.66096938	     -0.84961440	     -0.60032805	     -0.40671753	     -0.64537696	     -0.55414897	     -5.08425388	     -4.71312670	     -4.10934710	      0.00000000	      0.00000000	     -3.99001009	     -3.70452556	     -2.81629359	     12.87429795	     -4.70835460	    129.57950951	      6.61251493	      2.22338253	     -0.78398162	    -12.66079993	     16.14026214	     -8.57986488	    183.05272446	      2.85150179	     11.38923124	     -8.70065153	     -1.85885025
      4.31034483	     -7.90854514	     -2.00606669	     92.96598581	      0.20496241	      0.93915996	      0.62851284	     -9.45607077	     -2.83071676	      7.18525396	      0.54477196	      0.00950806	     23.62599418	    -15.86602368	      0.00000000	     -6.43854701	      3.64067647	     13.42329247	      2.42654988	      0.04235128	     25.62553710	     -6.54450942	      0.00000000	     -0.73668367	     -0.39835743	     -0.71495240	     -1.36809525	     -0.52981539	     -0.75963693	     -1.21029761	     -0.96856627	     -0.75963693	     -0.84195577	     -0.96856627	     -0.62558335	     -0.68408446	     -0.81233048	     -0.58089883	     -0.42094105	     -0.61705567	     -0.53621430	     -5.26205782	     -4.50629897	     -3.97635078	      0.00000000	      0.00000000	     -4.24184553	     -4.82079662	     -4.78764705	     12.77090450	     -4.71908977	    129.77838797	      6.49783098	      2.23032274	     -0.92741557	    -12.89565502	     16.17809364	     -8.60384685	    182.06541415	      2.83444490	     10.48757798	     -8.58221109	     -2.52294636
      4.32758621	     -7.77461093	     -1.78760186	     92.83439988	      0.20548092	      0.93902607	      0.62740829	     -9.67882733	     -2.65303052	      7.13937314	      0.56147437	      0.00979958	     23.77526561	    -15.76418316	      0.00000000	     -6.88172073	      3.44911026	     13.76905441	      2.02910118	      0.03541450	     25.87186291	     -6.66584616	      0.00000000	     -0.75021225	     -0.37907728	     -0.67671662	     -1.39321917	     -0.50417279	     -0.71901141	     -1.23252370	     -0.92168851	     -0.71901141	     -0.85741758	     -0.92168851	     -0.59212705	     -0.69664709	     -0.77301440	     -0.54983226	     -0.42867128	     -0.58719071	     -0.50753747	     -5.35869108	     -4.28819806	     -3.76369485	      0.00000000	      0.00000000	     -4.58893300	     -5.61136701	     -6.10789216	     12.60193711	     -4.75473457	    129.99081601	      6.37335214	      2.21594096	     -0.94475235	    -12.97510383	     16.08997833	     -8.59502119	    180.91958727	      2.74048318	      9.48703797	     -8.62444990	     -3.18370360
      4.34482759	     -7.63254973	     -1.58319773	     92.74787117	      0.20589419	      0.93888481	      0.62637615	     -9.88989594	     -2.47271783	      7.15095118	      0.56289833	      0.00982443	     23.97888943	    -15.65462828	      0.00000000	     -7.25359232	      3.24976249	     14.15655603	      1.70835490	      0.02981642	     26.13158749	     -6.84686704	      0.00000000	     -0.75734818	     -0.36060104	     -0.64735001	     -1.40647131	     -0.47959938	     -0.68780939	     -1.24424733	     -0.87676536	     -0.68780939	     -0.86557324	     -0.87676536	     -0.56643126	     -0.70327352	     -0.73533763	     -0.52597188	     -0.43274875	     -0.55857101	     -0.48551251	     -5.40966233	     -4.07919105	     -3.60036655	      0.00000000	      0.00000000	     -4.99684016	     -5.98346474	     -6.74708271	     12.40562276	     -4.79065972	    130.11757562	      6.23801638	      2.19290326	     -0.98890424	    -12.96540599	     15.97006220	     -8.54138931	    179.83674184	      2.66380788	      8.56485787	     -8.66286132	     -3.71609456
      4.36206897	     -7.48947406	     -1.45272106	     92.65573261	      0.20618628	      0.93869520	      0.62544434	    -10.00398091	     -2.30559379	      7.13006715	      0.58083368	      0.01013746	     24.16966432	    -15.50912050	      0.00000000	     -7.52437677	      3.05938401	     14.55661518	      1.41913511	      0.02476858	     26.38019047	     -7.05974172	      0.00000000	     -0.75161729	     -0.34306227	     -0.61129098	     -1.39582848	     -0.45627281	     -0.64949667	     -1.23483205	     -0.83412159	     -0.64949667	     -0.85902341	     -0.83412159	     -0.53487961	     -0.69795182	     -0.69957257	     -0.49667392	     -0.42947412	     -0.53140345	     -0.45846824	     -5.36872717	     -3.88078897	     -3.39981705	      0.00000000	      0.00000000	     -5.19748018	     -6.00667467	     -6.70606792	     12.18551946	     -4.85452330	    130.22057553	      6.15732763	      2.15807779	     -1.07339405	    -12.92565556	     15.88251253	     -8.46781172	    178.76521189	      2.73006414	      7.68255385	     -8.57175540	     -4.22149243
